<?xml version="1.0" encoding="UTF-8"?><svg xmlns="http://www.w3.org/2000/svg" width="593" height="593" style="font-family: Arial, sans-serif; width: 593px; height: 1777px;"><g class="path" style="cursor: move;"><path stroke="black" stroke-width="1.5" fill="none" d="M227.35,506.41L452.20,366.98"></path><path stroke="black" stroke-width="1.5" fill="white" class="arrowfront" d="M-1,0L15,5L15,-5Z" transform="translate(452.2036210670221,366.98087248826704) rotate(148.19784574676376)"></path></g><g class="path" style="cursor: move;"><path stroke="black" stroke-width="1.5" fill="none" d="M224.46,503.95L453.68,281.31"></path><path stroke="black" stroke-width="1.5" fill="white" class="arrowfront" d="M-1,0L15,5L15,-5Z" transform="translate(453.6832086659736,281.31282821537184) rotate(135.8352697179143)"></path></g><g class="path" style="cursor: move;"><path stroke="black" stroke-width="1.5" fill="none" d="M60.01,51.16L223.00,52.83"></path><path stroke="black" stroke-width="1.5" fill="white" class="arrowfront" d="M-1,0L15,5L15,-5Z" transform="translate(222.99721291484752,52.83081571194064) rotate(180.58639033123333)"></path></g><g class="path" style="cursor: move;"><path stroke="black" stroke-width="1.5" fill="none" d="M267.98,53.66L538.02,63.23"></path><path stroke="black" stroke-width="1.5" fill="white" class="arrowfront" d="M-1,0L15,5L15,-5Z" transform="translate(538.0152407123455,63.22971556358179) rotate(182.02978563799846)"></path></g><g class="path" style="cursor: move;"><path stroke="black" stroke-width="1.5" fill="none" d="M266.38,58.96L531.85,158.53"></path><path stroke="black" stroke-width="1.5" fill="white" class="arrowfront" d="M-1,0L15,5L15,-5Z" transform="translate(531.8478375503568,158.5255238202447) rotate(200.5585796601415)"></path></g><g class="path" style="cursor: move;"><path stroke="black" stroke-width="1.5" fill="none" d="M261.42,64.17L453.74,252.74"></path><path stroke="black" stroke-width="1.5" fill="white" class="arrowfront" d="M-1,0L15,5L15,-5Z" transform="translate(453.7367517731945,252.7371609920564) rotate(224.43630104277457)"></path></g><g class="path" style="cursor: move;"><path stroke="black" stroke-width="1.5" fill="none" d="M362.64,252.09L545.45,78.09"></path><path stroke="black" stroke-width="1.5" fill="white" class="arrowfront" d="M-1,0L15,5L15,-5Z" transform="translate(545.449318243155,78.08826822313179) rotate(136.41431328891306)"></path></g><g class="path" style="cursor: move;"><path stroke="black" stroke-width="1.5" fill="none" d="M363.76,318.86L536.10,178.91"></path><path stroke="black" stroke-width="1.5" fill="white" class="arrowfront" d="M-1,0L15,5L15,-5Z" transform="translate(536.100470122919,178.91133822799725) rotate(140.92172816645294)"></path></g><g class="path" style="cursor: move;"><path stroke="black" stroke-width="1.5" fill="none" d="M370.95,386.23L449.19,362.05"></path><path stroke="black" stroke-width="1.5" fill="white" class="arrowfront" d="M-1,0L15,5L15,-5Z" transform="translate(449.18878260601423,362.053850905009) rotate(162.82521471755172)"></path></g><g class="path" style="cursor: move;"><path stroke="black" stroke-width="1.5" fill="none" d="M58.01,120.86L223.00,119.19"></path><path stroke="black" stroke-width="1.5" fill="white" class="arrowfront" d="M-1,0L15,5L15,-5Z" transform="translate(222.99718451888867,119.18884589066761) rotate(179.41945099840103)"></path></g><g class="path" style="cursor: move;"><path stroke="black" stroke-width="1.5" fill="none" d="M267.59,115.97L538.46,67.75"></path><path stroke="black" stroke-width="1.5" fill="white" class="arrowfront" d="M-1,0L15,5L15,-5Z" transform="translate(538.4555923259536,67.75497855455563) rotate(169.90694015735076)"></path></g><g class="path" style="cursor: move;"><path stroke="black" stroke-width="1.5" fill="none" d="M267.68,121.62L530.35,162.66"></path><path stroke="black" stroke-width="1.5" fill="white" class="arrowfront" d="M-1,0L15,5L15,-5Z" transform="translate(530.3487027483992,162.65552818625443) rotate(188.87919426893822)"></path></g><g class="path" style="cursor: move;"><path stroke="black" stroke-width="1.5" fill="none" d="M263.86,128.11L450.82,255.41"></path><path stroke="black" stroke-width="1.5" fill="white" class="arrowfront" d="M-1,0L15,5L15,-5Z" transform="translate(450.8196056484377,255.40957132954776) rotate(214.2494787393031)"></path></g><g class="path" style="cursor: move;"><path stroke="black" stroke-width="1.5" fill="none" d="M58.71,307.43L324.34,266.34"></path><path stroke="black" stroke-width="1.5" fill="white" class="arrowfront" d="M-1,0L15,5L15,-5Z" transform="translate(324.3372617713988,266.3378500610578) rotate(171.2067354181741)"></path></g><g class="path" style="cursor: move;"><path stroke="black" stroke-width="1.5" fill="none" d="M58.96,311.12L324.05,327.64"></path><path stroke="black" stroke-width="1.5" fill="white" class="arrowfront" d="M-1,0L15,5L15,-5Z" transform="translate(324.0460400098176,327.6393163155491) rotate(183.56537041228808)"></path></g><g class="path" style="cursor: move;"><path stroke="black" stroke-width="1.5" fill="none" d="M58.16,314.40L327.98,385.59"></path><path stroke="black" stroke-width="1.5" fill="white" class="arrowfront" d="M-1,0L15,5L15,-5Z" transform="translate(327.9783824576731,385.58990424596385) rotate(194.781200746188)"></path></g><g class="path" style="cursor: move;"><path stroke="black" stroke-width="1.5" fill="none" d="M554.75,180.97L551.34,430.01"></path><path stroke="black" stroke-width="1.5" fill="white" class="arrowfront" d="M-1,0L15,5L15,-5Z" transform="translate(551.3381075357842,430.01376222289224) rotate(-89.21587142355067)"></path></g><g class="path" style="cursor: move;"><path stroke="black" stroke-width="1.5" fill="none" d="M484.71,368.17L535.81,434.26"></path><path stroke="black" stroke-width="1.5" fill="white" class="arrowfront" d="M-1,0L15,5L15,-5Z" transform="translate(535.8143868320981,434.2591564075478) rotate(232.2855788686697)"></path></g><g class="path" style="cursor: move;"><path stroke="black" stroke-width="1.5" fill="none" d="M478.17,281.06L541.57,431.55"></path><path stroke="black" stroke-width="1.5" fill="white" class="arrowfront" d="M-1,0L15,5L15,-5Z" transform="translate(541.5746030026493,431.5492446771044) rotate(247.1540307479728)"></path></g><g transform="translate(210.99380696424396,515.0351423809868)" style="cursor: move; touch-action: none;"><path fill-opacity="0.7" stroke-width="2" z-index="1" d="M 0 0 m 20, 0 a 20,15 0 1,1 -40,0 a 20,15 0 1,1 40,0" fill="#aaaaaa" stroke="#666666"></path><rect class="textbg" fill="#ffffff" width="31.125" height="17" x="-15.5625" y="21"></rect><text class="nodelabel" y="35" text-anchor="middle">BLD</text></g><g transform="translate(562.9966113577939,63.99311644083761)" style="cursor: move; touch-action: none;"><path fill-opacity="0.7" stroke-width="2" z-index="1" d="M 0 0 m 20, 0 a 20,15 0 1,1 -40,0 a 20,15 0 1,1 40,0" fill="#aaaaaa" stroke="#666666"></path><rect class="textbg" fill="#ffffff" width="24.890625" height="17" x="-12.4453125" y="21"></rect><text class="nodelabel" y="35" text-anchor="middle">DM</text></g><g transform="translate(40.01606683804625,50.988479095717686)" style="cursor: move; touch-action: none;"><path fill-opacity="0.7" stroke-width="2" z-index="1" d="M 0 0 m 20, 0 a 20,15 0 1,1 -40,0 a 20,15 0 1,1 40,0" fill="#aaaaaa" stroke="#666666"></path><rect class="textbg" fill="#ffffff" width="42.671875" height="17" x="-21.3359375" y="21"></rect><text class="nodelabel" y="35" text-anchor="middle">EMTh</text></g><g transform="translate(247.9956765599439,53.04861966524164)" style="cursor: move; touch-action: none;"><path fill-opacity="0.7" stroke-width="2" z-index="1" d="M 0 0 m 20, 0 a 20,15 0 1,1 -40,0 a 20,15 0 1,1 40,0" fill="#dddddd" stroke="#aaaaaa"></path><rect class="textbg" fill="#ffffff" width="42.671875" height="17.1796875" x="-21.3359375" y="21"></rect><text class="nodelabel" y="35" text-anchor="middle">EMTp</text></g><g transform="translate(551.0091142790371,450.0119556553873)" style="cursor: move; touch-action: none;"><path fill-opacity="0.7" stroke-width="2" z-index="1" d="M 0 0 m 20, 0 a 20,15 0 1,1 -40,0 a 20,15 0 1,1 40,0" fill="#aaaaaa" stroke="#666666"></path><rect class="textbg" fill="#ffffff" width="11.5625" height="17" x="-5.78125" y="21"></rect><text class="nodelabel" y="35" text-anchor="middle">N</text></g><g transform="translate(348.98860715120355,263.0541989710891)" style="cursor: move; touch-action: none;"><path fill-opacity="0.7" stroke-width="2" z-index="1" d="M 0 0 m 20, 0 a 20,15 0 1,1 -40,0 a 20,15 0 1,1 40,0" fill="#dddddd" stroke="#aaaaaa"></path><rect class="textbg" fill="#ffffff" width="18.671875" height="17" x="-9.3359375" y="21"></rect><text class="nodelabel" y="35" text-anchor="middle">Td</text></g><g transform="translate(348.98860715120355,328.97869719585543)" style="cursor: move; touch-action: none;"><path fill-opacity="0.7" stroke-width="2" z-index="1" d="M 0 0 m 20, 0 a 20,15 0 1,1 -40,0 a 20,15 0 1,1 40,0" fill="#dddddd" stroke="#aaaaaa"></path><rect class="textbg" fill="#ffffff" width="12.734375" height="17" x="-6.3671875" y="21"></rect><text class="nodelabel" y="35" text-anchor="middle">Ti</text></g><g transform="translate(352.00280439354987,391.0404318527643)" style="cursor: move; touch-action: none;"><path fill-opacity="0.7" stroke-width="2" z-index="1" d="M 0 0 m 20, 0 a 20,15 0 1,1 -40,0 a 20,15 0 1,1 40,0" fill="#dddddd" stroke="#aaaaaa"></path><rect class="textbg" fill="#ffffff" width="13.328125" height="17.3671875" x="-6.6640625" y="21"></rect><text class="nodelabel" y="35" text-anchor="middle">Tj</text></g><g transform="translate(38.00660200981537,121.03325845953198)" style="cursor: move; touch-action: none;"><path fill-opacity="0.7" stroke-width="2" z-index="1" d="M 0 0 m 20, 0 a 20,15 0 1,1 -40,0 a 20,15 0 1,1 40,0" fill="#aaaaaa" stroke="#666666"></path><rect class="textbg" fill="#ffffff" width="51.578125" height="17" x="-25.7890625" y="21"></rect><text class="nodelabel" y="35" text-anchor="middle">VETCh</text></g><g transform="translate(247.9956765599439,118.97311789000801)" style="cursor: move; touch-action: none;"><path fill-opacity="0.7" stroke-width="2" z-index="1" d="M 0 0 m 20, 0 a 20,15 0 1,1 -40,0 a 20,15 0 1,1 40,0" fill="#dddddd" stroke="#aaaaaa"></path><rect class="textbg" fill="#ffffff" width="51.578125" height="17.1796875" x="-25.7890625" y="21"></rect><text class="nodelabel" y="35" text-anchor="middle">VETCp</text></g><g transform="translate(39.01133442393081,310.05115571335415)" style="cursor: move; touch-action: none;"><path fill-opacity="0.7" stroke-width="2" z-index="1" d="M 0 0 m 20, 0 a 20,15 0 1,1 -40,0 a 20,15 0 1,1 40,0" fill="#aaaaaa" stroke="#666666"></path><rect class="textbg" fill="#ffffff" width="26.703125" height="17.3671875" x="-13.3515625" y="21"></rect><text class="nodelabel" y="35" text-anchor="middle">age</text></g><g transform="translate(554.9933979901846,165.97007463227308)" style="cursor: move; touch-action: none;"><path fill-opacity="0.7" stroke-width="2" z-index="1" d="M 0 0 m 20, 0 a 20,15 0 1,1 -40,0 a 20,15 0 1,1 40,0" fill="#aaaaaa" stroke="#666666"></path><rect class="textbg" fill="#ffffff" width="3.5625" height="17" x="-1.78125" y="21"></rect><text class="nodelabel" y="35" text-anchor="middle">i</text></g><g transform="translate(472.98644543117547,356.01804217085726)" style="cursor: move; touch-action: none;"><path fill-opacity="0.7" stroke-width="2" z-index="1" d="M 0 0 m 20, 0 a 20,15 0 1,1 -40,0 a 20,15 0 1,1 40,0" fill="#aaaaaa" stroke="#666666"></path><rect class="textbg" fill="#ffffff" width="4.296875" height="17.3671875" x="-2.515625" y="21"></rect><text class="nodelabel" y="35" text-anchor="middle">j</text></g><g transform="translate(471.0116265482589,267.0457213245417)" style="cursor: move; touch-action: none;"><path fill-opacity="0.7" stroke-width="2" z-index="1" d="M 0 0 m 20, 0 a 20,15 0 1,1 -40,0 a 20,15 0 1,1 40,0" fill="#aaaaaa" stroke="#666666"></path><rect class="textbg" fill="#ffffff" width="8" height="17" x="-4" y="21"></rect><text class="nodelabel" y="35" text-anchor="middle">z</text></g></svg>